{
  "source": "C:\\Users\\Peter\\Desktop\\stuff\\MIUN\\quantitative_research\\video_compression\\videos\\BVI-HD\\BVI-HD_CDVL_videos\\ORIG\\Hamster_1920x1080_60fps.mp4",
  "output": "C:\\Users\\Peter\\Desktop\\stuff\\MIUN\\quantitative_research\\video_compression\\compressed_videos\\BVI-HD\\h264\\1\\Hamster_1920x1080_60fps_h264.mp4",
  "codec": "h264",
  "ok": "Input #0, mov,mp4,m4a,3gp,3g2,mj2, from 'C:\\Users\\Peter\\Desktop\\stuff\\MIUN\\quantitative_research\\video_compression\\videos\\BVI-HD\\BVI-HD_CDVL_videos\\ORIG\\Hamster_1920x1080_60fps.mp4':\n  Metadata:\n    major_brand     : isom\n    minor_version   : 512\n    compatible_brands: isomiso2avc1mp41\n    encoder         : Lavf54.28.101\n  Duration: 00:00:05.00, start: 0.000000, bitrate: 208485 kb/s\n  Stream #0:0[0x1](und): Video: h264 (High 4:4:4 Predictive) (avc1 / 0x31637661), yuv420p(progressive), 1920x1080, 208481 kb/s, 60 fps, 60 tbr, 60 tbn (default)\n    Metadata:\n      handler_name    : VideoHandler\n      vendor_id       : [0][0][0][0]\n[out#0/mp4 @ 0000023fcfd2ee80] Codec AVOption b:a (set bitrate (in bits/s)) has not been used for any stream. The most likely reason is either wrong type (e.g. a video option with no video streams) or that it is a private option of some decoder which was not actually used for any stream.\nStream mapping:\n  Stream #0:0 -> #0:0 (h264 (native) -> h264 (libx264))\nPress [q] to stop, [?] for help\n[libx264 @ 0000023fd041ac00] using cpu capabilities: MMX2 SSE2Fast SSSE3 SSE4.2 AVX FMA3 BMI2 AVX2\n[libx264 @ 0000023fd041ac00] profile High, level 5.0, 4:2:0, 8-bit\n[libx264 @ 0000023fd041ac00] 264 - core 165 r3222 b35605a - H.264/MPEG-4 AVC codec - Copyleft 2003-2025 - http://www.videolan.org/x264.html - options: cabac=1 ref=5 deblock=1:0:0 analyse=0x3:0x113 me=hex subme=8 psy=1 psy_rd=1.00:0.00 mixed_ref=1 me_range=16 chroma_me=1 trellis=2 8x8dct=1 cqm=0 deadzone=21,11 fast_pskip=1 chroma_qp_offset=-2 threads=18 lookahead_threads=3 sliced_threads=0 nr=0 decimate=1 interlaced=0 bluray_compat=0 constrained_intra=0 bframes=3 b_pyramid=2 b_adapt=1 b_bias=0 direct=3 weightb=1 open_gop=0 weightp=2 keyint=250 keyint_min=25 scenecut=40 intra_refresh=0 rc_lookahead=50 rc=cbr mbtree=1 bitrate=1000 ratetol=1.0 qcomp=0.60 qpmin=0 qpmax=69 qpstep=4 vbv_maxrate=1000 vbv_bufsize=1000 nal_hrd=none filler=0 ip_ratio=1.40 aq=1:1.00\nOutput #0, mp4, to 'C:\\Users\\Peter\\Desktop\\stuff\\MIUN\\quantitative_research\\video_compression\\compressed_videos\\BVI-HD\\h264\\1\\Hamster_1920x1080_60fps_h264.mp4':\n  Metadata:\n    major_brand     : isom\n    minor_version   : 512\n    compatible_brands: isomiso2avc1mp41\n    encoder         : Lavf62.3.100\n  Stream #0:0(und): Video: h264 (avc1 / 0x31637661), yuv420p(tv, progressive), 1920x1080, q=2-31, 1000 kb/s, 60 fps, 15360 tbn (default)\n    Metadata:\n      encoder         : Lavc62.11.100 libx264\n      handler_name    : VideoHandler\n      vendor_id       : [0][0][0][0]\n    Side data:\n      cpb: bitrate max/min/avg: 1000000/0/1000000 buffer size: 1000000 vbv_delay: N/A\nframe=    0 fps=0.0 q=0.0 size=       0KiB time=N/A bitrate=N/A speed=N/A elapsed=0:00:01.04    \nframe=    0 fps=0.0 q=0.0 size=       0KiB time=N/A bitrate=N/A speed=N/A elapsed=0:00:01.81    \nframe=    0 fps=0.0 q=0.0 size=       0KiB time=N/A bitrate=N/A speed=N/A elapsed=0:00:02.47    \nframe=    0 fps=0.0 q=0.0 size=       0KiB time=N/A bitrate=N/A speed=N/A elapsed=0:00:03.21    \nframe=    0 fps=0.0 q=0.0 size=       0KiB time=N/A bitrate=N/A speed=N/A elapsed=0:00:03.81    \nframe=    4 fps=0.9 q=48.0 size=       0KiB time=00:00:00.03 bitrate=  11.5kbits/s speed=0.00765x elapsed=0:00:04.35    \nframe=   20 fps=4.1 q=47.0 size=       0KiB time=00:00:00.30 bitrate=   1.3kbits/s speed=0.0616x elapsed=0:00:04.86    \nframe=   32 fps=5.8 q=47.0 size=       0KiB time=00:00:00.50 bitrate=   0.8kbits/s speed=0.0903x elapsed=0:00:05.53    \nframe=   48 fps=7.8 q=48.0 size=       0KiB time=00:00:00.70 bitrate=   0.5kbits/s speed=0.114x elapsed=0:00:06.13    \nframe=   68 fps= 10 q=47.0 size=       0KiB time=00:00:00.96 bitrate=   0.4kbits/s speed=0.144x elapsed=0:00:06.69    \nframe=   82 fps= 11 q=48.0 size=       0KiB time=00:00:01.30 bitrate=   0.3kbits/s speed=0.173x elapsed=0:00:07.52    \nframe=   96 fps= 12 q=48.0 size=       0KiB time=00:00:01.50 bitrate=   0.3kbits/s speed=0.181x elapsed=0:00:08.28    \nframe=  116 fps= 12 q=49.0 size=       0KiB time=00:00:01.78 bitrate=   0.2kbits/s speed=0.192x elapsed=0:00:09.29    \nframe=  140 fps= 14 q=49.0 size=     256KiB time=00:00:02.30 bitrate= 912.0kbits/s speed=0.227x elapsed=0:00:10.13    \nframe=  164 fps= 15 q=49.0 size=     256KiB time=00:00:02.63 bitrate= 796.5kbits/s speed=0.243x elapsed=0:00:10.84    \nframe=  180 fps= 16 q=50.0 size=     256KiB time=00:00:02.96 bitrate= 707.0kbits/s speed=0.257x elapsed=0:00:11.52    \nframe=  211 fps= 17 q=51.0 size=     256KiB time=00:00:03.30 bitrate= 635.6kbits/s speed=0.271x elapsed=0:00:12.19    \nframe=  226 fps= 17 q=50.0 size=     256KiB time=00:00:03.73 bitrate= 561.8kbits/s speed=0.287x elapsed=0:00:12.98    \nframe=  234 fps= 17 q=48.0 size=     256KiB time=00:00:03.86 bitrate= 542.5kbits/s speed=0.286x elapsed=0:00:13.50    \nframe=  263 fps= 19 q=51.0 size=     512KiB time=00:00:04.35 bitrate= 964.3kbits/s speed=0.31x elapsed=0:00:14.02    \n[mp4 @ 0000023fcfc99a80] Starting second pass: moving the moov atom to the beginning of the file\n[out#0/mp4 @ 0000023fcfd2ee80] video:595KiB audio:0KiB subtitle:0KiB other streams:0KiB global headers:0KiB muxing overhead: 0.728556%\nframe=  300 fps= 21 q=-1.0 Lsize=     599KiB time=00:00:04.96 bitrate= 988.6kbits/s speed=0.346x elapsed=0:00:14.34    \n[libx264 @ 0000023fd041ac00] frame I:2     Avg QP:41.48  size: 12137\n[libx264 @ 0000023fd041ac00] frame P:76    Avg QP:46.21  size:  3356\n[libx264 @ 0000023fd041ac00] frame B:222   Avg QP:49.81  size:  1483\n[libx264 @ 0000023fd041ac00] consecutive B-frames:  1.0%  0.0%  3.0% 96.0%\n[libx264 @ 0000023fd041ac00] mb I  I16..4: 15.2% 83.5%  1.3%\n[libx264 @ 0000023fd041ac00] mb P  I16..4:  4.1%  9.8%  0.0%  P16..4:  9.6%  0.2%  0.3%  0.0%  0.0%    skip:76.1%\n[libx264 @ 0000023fd041ac00] mb B  I16..4:  0.4%  0.4%  0.0%  B16..8: 10.6%  0.2%  0.0%  direct: 0.4%  skip:88.0%  L0:52.6% L1:46.9% BI: 0.5%\n[libx264 @ 0000023fd041ac00] 8x8 transform intra:70.2% inter:99.3%\n[libx264 @ 0000023fd041ac00] direct mvs  spatial:95.5% temporal:4.5%\n[libx264 @ 0000023fd041ac00] coded y,uvDC,uvAC intra: 4.9% 29.1% 1.3% inter: 0.1% 2.2% 0.0%\n[libx264 @ 0000023fd041ac00] i16 v,h,dc,p: 37% 32%  6% 26%\n[libx264 @ 0000023fd041ac00] i8 v,h,dc,ddl,ddr,vr,hd,vl,hu: 14%  6% 69%  2%  2%  2%  2%  1%  1%\n[libx264 @ 0000023fd041ac00] i4 v,h,dc,ddl,ddr,vr,hd,vl,hu: 19% 18% 21% 16%  8%  6%  5%  4%  4%\n[libx264 @ 0000023fd041ac00] i8c dc,h,v,p: 87%  7%  5%  1%\n[libx264 @ 0000023fd041ac00] Weighted P-Frames: Y:0.0% UV:0.0%\n[libx264 @ 0000023fd041ac00] ref P L0: 50.9%  1.9% 25.0% 11.0% 11.2%\n[libx264 @ 0000023fd041ac00] ref B L0: 67.2% 20.5% 10.1%  2.3%\n[libx264 @ 0000023fd041ac00] ref B L1: 87.8% 12.2%\n[libx264 @ 0000023fd041ac00] kb/s:973.64\n",
  "seconds": 14.937081575393677,
  "probe_out": {}
}